<svg width="61" height="61" viewBox="0 0 61 61" fill="none" xmlns="http://www.w3.org/2000/svg">
<path d="M15.25 41.9375H7.625V53.375H15.25V41.9375ZM34.3125 26.6875H26.6875V53.375H34.3125V26.6875ZM53.375 7.625V53.375H45.75V7.625H53.375ZM45.75 3.8125C44.7389 3.8125 43.7691 4.21417 43.0542 4.92916C42.3392 5.64414 41.9375 6.61386 41.9375 7.625V53.375C41.9375 54.3861 42.3392 55.3559 43.0542 56.0708C43.7691 56.7858 44.7389 57.1875 45.75 57.1875H53.375C54.3861 57.1875 55.3559 56.7858 56.0708 56.0708C56.7858 55.3559 57.1875 54.3861 57.1875 53.375V30.5V7.625C57.1875 6.61386 56.7858 5.64414 56.0708 4.92916C55.3559 4.21417 54.3861 3.8125 53.375 3.8125H45.75ZM22.875 26.6875C22.875 25.6764 23.2767 24.7066 23.9917 23.9917C24.7066 23.2767 25.6764 22.875 26.6875 22.875H34.3125C35.3236 22.875 36.2934 23.2767 37.0083 23.9917C37.7233 24.7066 38.125 25.6764 38.125 26.6875V53.375C38.125 54.3861 37.7233 55.3559 37.0083 56.0708C36.2934 56.7858 35.3236 57.1875 34.3125 57.1875H26.6875C25.6764 57.1875 24.7066 56.7858 23.9917 56.0708C23.2767 55.3559 22.875 54.3861 22.875 53.375V26.6875ZM3.8125 41.9375C3.8125 40.9264 4.21417 39.9566 4.92916 39.2417C5.64414 38.5267 6.61386 38.125 7.625 38.125H15.25C16.2611 38.125 17.2309 38.5267 17.9458 39.2417C18.6608 39.9566 19.0625 40.9264 19.0625 41.9375V53.375C19.0625 54.3861 18.6608 55.3559 17.9458 56.0708C17.2309 56.7858 16.2611 57.1875 15.25 57.1875H7.625C6.61386 57.1875 5.64414 56.7858 4.92916 56.0708C4.21417 55.3559 3.8125 54.3861 3.8125 53.375V41.9375Z" fill="#004FAC" fill-opacity="0.8"/>
</svg>
