<svg width="44" height="48" viewBox="0 0 44 48" fill="none" xmlns="http://www.w3.org/2000/svg">
<path d="M10.5443 0.0786943C10.9427 -0.039949 11.3727 0.00197556 11.7397 0.195267C12.1068 0.388559 12.3811 0.717426 12.5023 1.10969L13.4169 4.06956C15.9686 2.4269 18.9518 1.55419 22 1.55863C25.1649 1.55863 28.116 2.48126 30.5831 4.06956L31.4946 1.10969C31.5533 0.913829 31.6507 0.731343 31.7813 0.572748C31.9119 0.414153 32.0731 0.282583 32.2556 0.185619C32.438 0.0886543 32.6381 0.0282116 32.8444 0.00777256C33.0507 -0.0126665 33.259 0.0073022 33.4574 0.0665282C33.6558 0.125754 33.8403 0.223067 34.0004 0.352861C34.1605 0.482654 34.2929 0.642362 34.39 0.822785C34.4871 1.00321 34.547 1.20078 34.5663 1.40412C34.5856 1.60746 34.5638 1.81254 34.5023 2.00756L33.2137 6.19348C36.1027 9.08536 37.7195 12.9816 37.7143 17.0391H39.2857C39.7025 17.0391 40.1022 16.876 40.3969 16.5857C40.6916 16.2954 40.8571 15.9016 40.8571 15.491V13.943C40.8571 13.5324 41.0227 13.1387 41.3174 12.8484C41.6121 12.558 42.0118 12.3949 42.4286 12.3949C42.8453 12.3949 43.245 12.558 43.5397 12.8484C43.8344 13.1387 44 13.5324 44 13.943V15.491C44 16.7227 43.5033 17.904 42.6192 18.7749C41.7351 19.6459 40.536 20.1352 39.2857 20.1352H37.7143V23.2313H42.4286C42.8453 23.2313 43.245 23.3944 43.5397 23.6847C43.8344 23.975 44 24.3687 44 24.7793C44 25.1899 43.8344 25.5836 43.5397 25.8739C43.245 26.1643 42.8453 26.3274 42.4286 26.3274H37.7143V29.4235H39.2857C40.536 29.4235 41.7351 29.9127 42.6192 30.7837C43.5033 31.6546 44 32.8359 44 34.0676V35.6156C44 36.0262 43.8344 36.42 43.5397 36.7103C43.245 37.0006 42.8453 37.1637 42.4286 37.1637C42.0118 37.1637 41.6121 37.0006 41.3174 36.7103C41.0227 36.42 40.8571 36.0262 40.8571 35.6156V34.0676C40.8571 33.657 40.6916 33.2633 40.3969 32.973C40.1022 32.6826 39.7025 32.5195 39.2857 32.5195H37.7143C37.7143 36.6252 36.0587 40.5627 33.1117 43.4659C30.1647 46.369 26.1677 48 22 48C17.8323 48 13.8353 46.369 10.8883 43.4659C7.94132 40.5627 6.28571 36.6252 6.28571 32.5195H4.71429C4.29752 32.5195 3.89782 32.6826 3.60312 32.973C3.30842 33.2633 3.14286 33.657 3.14286 34.0676V35.6156C3.14286 36.0262 2.9773 36.42 2.6826 36.7103C2.3879 37.0006 1.9882 37.1637 1.57143 37.1637C1.15466 37.1637 0.754961 37.0006 0.460261 36.7103C0.165561 36.42 0 36.0262 0 35.6156V34.0676C0 32.8359 0.496682 31.6546 1.38078 30.7837C2.26488 29.9127 3.46398 29.4235 4.71429 29.4235H6.28571V26.3274H1.57143C1.15466 26.3274 0.754961 26.1643 0.460261 25.8739C0.165561 25.5836 0 25.1899 0 24.7793C0 24.3687 0.165561 23.975 0.460261 23.6847C0.754961 23.3944 1.15466 23.2313 1.57143 23.2313H6.28571V20.1352H4.71429C3.46398 20.1352 2.26488 19.6459 1.38078 18.7749C0.496682 17.904 0 16.7227 0 15.491V13.943C0 13.5324 0.165561 13.1387 0.460261 12.8484C0.754961 12.558 1.15466 12.3949 1.57143 12.3949C1.9882 12.3949 2.3879 12.558 2.6826 12.8484C2.9773 13.1387 3.14286 13.5324 3.14286 13.943V15.491C3.14286 15.9016 3.30842 16.2954 3.60312 16.5857C3.89782 16.876 4.29752 17.0391 4.71429 17.0391H6.28571C6.28571 12.816 8.00486 8.98615 10.7863 6.19348L9.49771 2.00756C9.37728 1.61506 9.41984 1.19152 9.61605 0.829896C9.81226 0.468273 10.1461 0.198108 10.5443 0.0786943ZM9.42857 20.1352V32.5195C9.42752 35.5367 10.5446 38.4505 12.57 40.7137C14.5954 42.9769 17.3899 44.4339 20.4286 44.811V20.1352H9.42857ZM23.5714 20.1352V44.811C26.6101 44.4339 29.4046 42.9769 31.43 40.7137C33.4554 38.4505 34.5725 35.5367 34.5714 32.5195V20.1352H23.5714ZM34.5714 17.0391C34.5736 15.2958 34.2011 13.5719 33.4785 11.9806C32.7559 10.3894 31.6995 8.9668 30.3789 7.80654C28.0769 5.7725 25.0923 4.64977 22 4.65472C18.9067 4.649 15.9207 5.77178 13.618 7.80654C12.2979 8.96709 11.2421 10.3898 10.52 11.981C9.79798 13.5723 9.426 15.2961 9.42857 17.0391H34.5714Z" fill="#8E0145"/>
</svg>
