<svg width="44" height="27" viewBox="0 0 44 27" fill="none" xmlns="http://www.w3.org/2000/svg">
<path d="M14.7376 2.88393C14.8949 2.72705 15.0197 2.54082 15.1049 2.33586C15.19 2.13089 15.2338 1.91122 15.2338 1.68936C15.2338 1.46751 15.19 1.24784 15.1049 1.04287C15.0197 0.837909 14.8949 0.651675 14.7376 0.494803C14.5803 0.337931 14.3935 0.213493 14.188 0.128595C13.9824 0.043696 13.7621 -1.65292e-09 13.5396 0C13.3171 1.65292e-09 13.0968 0.043696 12.8913 0.128595C12.6857 0.213493 12.499 0.337931 12.3416 0.494803L0.497111 12.3054C0.339534 12.4622 0.214514 12.6484 0.129211 12.8533C0.0439089 13.0583 0 13.2781 0 13.5C0 13.7219 0.0439089 13.9417 0.129211 14.1467C0.214514 14.3516 0.339534 14.5378 0.497111 14.6946L12.3416 26.5052C12.6594 26.822 13.0903 27 13.5396 27C13.989 27 14.4199 26.822 14.7376 26.5052C15.0553 26.1884 15.2338 25.7587 15.2338 25.3106C15.2338 24.8626 15.0553 24.4329 14.7376 24.1161L4.08769 13.5L14.7376 2.88393ZM29.2624 2.88393C28.9447 2.56711 28.7662 2.13741 28.7662 1.68936C28.7662 1.24132 28.9447 0.811621 29.2624 0.494803C29.5801 0.177986 30.011 1.15639e-08 30.4604 0C30.9097 -1.15639e-08 31.3406 0.177986 31.6584 0.494803L43.5029 12.3054C43.6605 12.4622 43.7855 12.6484 43.8708 12.8533C43.9561 13.0583 44 13.2781 44 13.5C44 13.7219 43.9561 13.9417 43.8708 14.1467C43.7855 14.3516 43.6605 14.5378 43.5029 14.6946L31.6584 26.5052C31.3406 26.822 30.9097 27 30.4604 27C30.011 27 29.5801 26.822 29.2624 26.5052C28.9447 26.1884 28.7662 25.7587 28.7662 25.3106C28.7662 24.8626 28.9447 24.4329 29.2624 24.1161L39.9123 13.5L29.2624 2.88393Z" fill="#1D92AC"/>
</svg>
