<svg width="44" height="43" viewBox="0 0 44 43" fill="none" xmlns="http://www.w3.org/2000/svg">
<g clip-path="url(#clip0_178_998)">
<path d="M22 13.4375C22.5417 13.4375 23.0781 13.3332 23.5786 13.1306C24.079 12.9281 24.5338 12.6311 24.9168 12.2568C25.2999 11.8824 25.6037 11.438 25.811 10.9489C26.0183 10.4598 26.125 9.93564 26.125 9.40625C26.125 8.87686 26.0183 8.35265 25.811 7.86356C25.6037 7.37446 25.2999 6.93006 24.9168 6.55573C24.5338 6.18139 24.079 5.88445 23.5786 5.68186C23.0781 5.47927 22.5417 5.375 22 5.375C20.906 5.375 19.8568 5.79972 19.0832 6.55573C18.3096 7.31173 17.875 8.3371 17.875 9.40625C17.875 10.4754 18.3096 11.5008 19.0832 12.2568C19.8568 13.0128 20.906 13.4375 22 13.4375ZM33 21.5C34.094 21.5 35.1432 21.0753 35.9168 20.3193C36.6904 19.5633 37.125 18.5379 37.125 17.4688C37.125 16.3996 36.6904 15.3742 35.9168 14.6182C35.1432 13.8622 34.094 13.4375 33 13.4375C31.906 13.4375 30.8568 13.8622 30.0832 14.6182C29.3096 15.3742 28.875 16.3996 28.875 17.4688C28.875 18.5379 29.3096 19.5633 30.0832 20.3193C30.8568 21.0753 31.906 21.5 33 21.5ZM15.125 18.8125C15.125 19.8817 14.6904 20.907 13.9168 21.663C13.1432 22.419 12.094 22.8438 11 22.8438C9.90598 22.8438 8.85677 22.419 8.08318 21.663C7.3096 20.907 6.875 19.8817 6.875 18.8125C6.875 17.7433 7.3096 16.718 8.08318 15.962C8.85677 15.206 9.90598 14.7812 11 14.7812C12.094 14.7812 13.1432 15.206 13.9168 15.962C14.6904 16.718 15.125 17.7433 15.125 18.8125ZM16.5 34.9375C17.594 34.9375 18.6432 34.5128 19.4168 33.7568C20.1904 33.0008 20.625 31.9754 20.625 30.9062C20.625 29.8371 20.1904 28.8117 19.4168 28.0557C18.6432 27.2997 17.594 26.875 16.5 26.875C15.406 26.875 14.3568 27.2997 13.5832 28.0557C12.8096 28.8117 12.375 29.8371 12.375 30.9062C12.375 31.9754 12.8096 33.0008 13.5832 33.7568C14.3568 34.5128 15.406 34.9375 16.5 34.9375Z" fill="#8C00A3"/>
<path d="M44 21.5C44 29.9656 38.8685 28.4472 34.1908 27.0631C31.405 26.2381 28.7788 25.4587 27.5 26.875C25.8418 28.7106 26.1938 31.7636 26.5348 34.7225C27.0215 38.9553 27.489 43 22 43C17.6488 43 13.3953 41.7391 9.77746 39.3766C6.15958 37.0142 3.33979 33.6563 1.67466 29.7277C0.00953218 25.7991 -0.426141 21.4762 0.422734 17.3056C1.27161 13.135 3.36691 9.30404 6.44366 6.29721C9.52042 3.29039 13.4404 1.24271 17.708 0.413126C21.9756 -0.416456 26.3991 0.00931554 30.419 1.6366C34.439 3.26388 37.875 6.01959 40.2923 9.55525C42.7097 13.0909 44 17.2477 44 21.5ZM22 40.3125C23.6803 40.3125 23.7985 39.8529 23.8013 39.8395C24.0158 39.4471 24.1423 38.5925 23.9938 36.8322C23.9553 36.3807 23.892 35.8378 23.826 35.2439C23.683 33.9969 23.518 32.5429 23.5015 31.3148C23.474 29.4147 23.7298 26.9879 25.4375 25.0959C26.4523 23.9752 27.7613 23.5425 28.9355 23.435C30.0465 23.3329 31.1685 23.5049 32.1255 23.7145C33.0688 23.9214 34.056 24.2144 34.9443 24.4778L35.0213 24.4993C35.9728 24.7814 36.8308 25.0341 37.642 25.2141C39.4378 25.6119 40.128 25.4372 40.3673 25.2786C40.4718 25.2088 41.25 24.6202 41.25 21.5C41.25 17.7792 40.121 14.142 38.0058 11.0483C35.8906 7.95465 32.8841 5.5434 29.3667 4.11953C25.8492 2.69565 21.9787 2.3231 18.2445 3.04899C14.5104 3.77487 11.0804 5.56659 8.3882 8.19756C5.69604 10.8285 3.86266 14.1806 3.11989 17.8299C2.37713 21.4791 2.75834 25.2617 4.21533 28.6992C5.67232 32.1368 8.13964 35.0749 11.3053 37.142C14.4709 39.2092 18.1927 40.3125 22 40.3125Z" fill="#003B75"/>
</g>
<defs>
<clipPath id="clip0_178_998">
<rect width="44" height="43" fill="white"/>
</clipPath>
</defs>
</svg>
